<svg xmlns="http://www.w3.org/2000/svg" viewBox="0 0 32 32">
  <defs>
    <linearGradient id="grad" x1="0%" y1="0%" x2="100%" y2="100%">
      <stop offset="0%" style="stop-color:#00ffff;stop-opacity:1" />
      <stop offset="100%" style="stop-color:#a855f7;stop-opacity:1" />
    </linearGradient>
  </defs>
  <rect width="32" height="32" rx="6" fill="#0a0a1a"/>
  <path d="M16 4c-2.2 0-4 1.8-4 4v8c0 2.2 1.8 4 4 4s4-1.8 4-4V8c0-2.2-1.8-4-4-4z" fill="url(#grad)"/>
  <path d="M10 14v2c0 3.3 2.7 6 6 6s6-2.7 6-6v-2h-2v2c0 2.2-1.8 4-4 4s-4-1.8-4-4v-2h-2z" fill="url(#grad)"/>
  <rect x="15" y="22" width="2" height="6" fill="url(#grad)"/>
  <rect x="11" y="28" width="10" height="2" rx="1" fill="url(#grad)"/>
</svg>